<svg width="26" height="25" viewBox="0 0 26 25" fill="none" xmlns="http://www.w3.org/2000/svg">
<path d="M13 25C6.09625 25 0.5 19.4037 0.5 12.5C0.5 5.59625 6.09625 0 13 0C19.9037 0 25.5 5.59625 25.5 12.5C25.4925 19.4 19.9 24.9925 13 25ZM7.65875 15.9837C7.4975 15.9837 7.3375 16.0038 7.18 16.0413L6.9925 16.0925L6.25 17.3637C6.11437 17.59 6.07082 17.8597 6.12835 18.1171C6.18587 18.3745 6.34007 18.6 6.55909 18.747C6.77811 18.8939 7.04522 18.9512 7.30524 18.9068C7.56525 18.8625 7.7983 18.72 7.95625 18.5087L8.03375 18.3925L9.02125 16.6788C8.8612 16.4647 8.65379 16.2906 8.41526 16.17C8.17672 16.0494 7.91352 15.9857 7.64625 15.9837H7.65875ZM14.5138 8.325C14.1248 8.69034 13.867 9.17354 13.78 9.7C13.6406 10.4259 13.7742 11.1777 14.155 11.8113L17.955 18.3938C18.0872 18.6163 18.2981 18.7811 18.546 18.8556C18.7939 18.9301 19.0607 18.9089 19.2937 18.7963C19.5261 18.6817 19.7067 18.4836 19.7994 18.2417C19.892 17.9998 19.89 17.7318 19.7937 17.4913L19.7325 17.3662L18.7325 15.6275H20.22C20.4805 15.6253 20.7305 15.5244 20.9195 15.3451C21.1084 15.1658 21.2224 14.9215 21.2382 14.6614C21.2541 14.4014 21.1707 14.1451 21.0049 13.9441C20.8391 13.7432 20.6033 13.6126 20.345 13.5787L20.22 13.5713H17.545L14.8025 8.82125L14.5163 8.32125L14.5138 8.325V8.325ZM5.825 13.5625C5.69068 13.5628 5.55774 13.5897 5.43379 13.6414C5.30985 13.6932 5.19734 13.7689 5.10271 13.8643C5.00808 13.9596 4.93318 14.0727 4.88231 14.197C4.83144 14.3213 4.80559 14.4544 4.80625 14.5887C4.80625 15.1062 5.19125 15.5437 5.705 15.61L5.83 15.6163H15.18C15.2835 15.4085 15.3355 15.1789 15.3319 14.9468C15.3282 14.7147 15.2688 14.4869 15.1588 14.2825C15.0652 14.091 14.9257 13.9257 14.7528 13.8011C14.5798 13.6766 14.3788 13.5968 14.1675 13.5687L14.0162 13.5612H10.8275L15.2375 5.925C15.3733 5.68828 15.4102 5.4075 15.34 5.14375C15.2901 4.95866 15.1895 4.79118 15.0496 4.66015C14.9096 4.52912 14.7359 4.43974 14.5479 4.40207C14.36 4.3644 14.1652 4.37993 13.9856 4.44692C13.806 4.51391 13.6486 4.6297 13.5313 4.78125L13.4537 4.89625L13 5.68875L12.5512 4.89625C12.419 4.67342 12.2079 4.5084 11.9597 4.43385C11.7115 4.35931 11.4444 4.38069 11.2113 4.49375C10.979 4.60881 10.7986 4.8071 10.706 5.04916C10.6133 5.29121 10.6152 5.55928 10.7112 5.8L10.7725 5.925L11.81 7.75L8.45375 13.5625H5.825Z" fill="white"/>
</svg>
