<svg width="213" height="40" viewBox="0 0 213 40" fill="none" xmlns="http://www.w3.org/2000/svg">
<path d="M11.6719 18.5195H4.36719L4.32812 14.4961H10.4609C11.5417 14.4961 12.4271 14.3594 13.1172 14.0859C13.8073 13.7995 14.3216 13.3893 14.6602 12.8555C15.0117 12.3086 15.1875 11.6445 15.1875 10.8633C15.1875 9.97786 15.0182 9.26172 14.6797 8.71484C14.3542 8.16797 13.8398 7.77083 13.1367 7.52344C12.4466 7.27604 11.5547 7.15234 10.4609 7.15234H6.39844V31H0.539062V2.5625H10.4609C12.1146 2.5625 13.5924 2.71875 14.8945 3.03125C16.2096 3.34375 17.3229 3.81901 18.2344 4.45703C19.1458 5.09505 19.8424 5.90234 20.3242 6.87891C20.806 7.84245 21.0469 8.98828 21.0469 10.3164C21.0469 11.4883 20.7799 12.569 20.2461 13.5586C19.7253 14.5482 18.8984 15.3555 17.7656 15.9805C16.6458 16.6055 15.181 16.9505 13.3711 17.0156L11.6719 18.5195ZM11.418 31H2.76562L5.05078 26.4297H11.418C12.4466 26.4297 13.2865 26.2669 13.9375 25.9414C14.5885 25.6029 15.0703 25.1471 15.3828 24.5742C15.6953 24.0013 15.8516 23.3438 15.8516 22.6016C15.8516 21.7682 15.7083 21.0456 15.4219 20.4336C15.1484 19.8216 14.7057 19.3529 14.0938 19.0273C13.4818 18.6888 12.6745 18.5195 11.6719 18.5195H6.02734L6.06641 14.4961H13.0977L14.4453 16.0781C16.1771 16.0521 17.5703 16.3581 18.625 16.9961C19.6927 17.6211 20.4674 18.4349 20.9492 19.4375C21.444 20.4401 21.6914 21.5143 21.6914 22.6602C21.6914 24.4831 21.2943 26.0195 20.5 27.2695C19.7057 28.5065 18.5404 29.4375 17.0039 30.0625C15.4805 30.6875 13.6185 31 11.418 31ZM37.1406 26.2344V16.8203C37.1406 16.1432 37.0299 15.5638 36.8086 15.082C36.5872 14.5872 36.2422 14.2031 35.7734 13.9297C35.3177 13.6562 34.7253 13.5195 33.9961 13.5195C33.3711 13.5195 32.8307 13.6302 32.375 13.8516C31.9193 14.0599 31.5677 14.3659 31.3203 14.7695C31.0729 15.1602 30.9492 15.6224 30.9492 16.1562H25.3242C25.3242 15.2578 25.5326 14.4049 25.9492 13.5977C26.3659 12.7904 26.9714 12.0807 27.7656 11.4688C28.5599 10.8438 29.5039 10.3555 30.5977 10.0039C31.7044 9.65234 32.9414 9.47656 34.3086 9.47656C35.9492 9.47656 37.4076 9.75 38.6836 10.2969C39.9596 10.8438 40.9622 11.6641 41.6914 12.7578C42.4336 13.8516 42.8047 15.2188 42.8047 16.8594V25.9023C42.8047 27.0612 42.8763 28.0117 43.0195 28.7539C43.1628 29.4831 43.3711 30.1211 43.6445 30.668V31H37.9609C37.6875 30.4271 37.4792 29.7109 37.3359 28.8516C37.2057 27.9792 37.1406 27.1068 37.1406 26.2344ZM37.8828 18.1289L37.9219 21.3125H34.7773C34.0352 21.3125 33.3906 21.3971 32.8438 21.5664C32.2969 21.7357 31.8477 21.9766 31.4961 22.2891C31.1445 22.5885 30.8841 22.9401 30.7148 23.3438C30.5586 23.7474 30.4805 24.1901 30.4805 24.6719C30.4805 25.1536 30.5911 25.5898 30.8125 25.9805C31.0339 26.3581 31.3529 26.6576 31.7695 26.8789C32.1862 27.0872 32.6745 27.1914 33.2344 27.1914C34.0807 27.1914 34.8164 27.0221 35.4414 26.6836C36.0664 26.3451 36.5482 25.9284 36.8867 25.4336C37.2383 24.9388 37.4206 24.4701 37.4336 24.0273L38.918 26.4102C38.7096 26.944 38.4232 27.4974 38.0586 28.0703C37.707 28.6432 37.2578 29.1836 36.7109 29.6914C36.1641 30.1862 35.5065 30.5964 34.7383 30.9219C33.9701 31.2344 33.0586 31.3906 32.0039 31.3906C30.6628 31.3906 29.4453 31.1237 28.3516 30.5898C27.2708 30.043 26.4115 29.2943 25.7734 28.3438C25.1484 27.3802 24.8359 26.2865 24.8359 25.0625C24.8359 23.9557 25.0443 22.9727 25.4609 22.1133C25.8776 21.2539 26.4896 20.5312 27.2969 19.9453C28.1172 19.3464 29.1393 18.8971 30.3633 18.5977C31.5872 18.2852 33.0065 18.1289 34.6211 18.1289H37.8828ZM52.6484 14.3789V31H47.0234V9.86719H52.2969L52.6484 14.3789ZM51.8281 19.6914H50.3047C50.3047 18.1289 50.5065 16.7227 50.9102 15.4727C51.3138 14.2096 51.8802 13.1354 52.6094 12.25C53.3385 11.3516 54.2044 10.668 55.207 10.1992C56.2227 9.71745 57.3555 9.47656 58.6055 9.47656C59.5951 9.47656 60.5 9.61979 61.3203 9.90625C62.1406 10.1927 62.8438 10.6484 63.4297 11.2734C64.0286 11.8984 64.4844 12.7253 64.7969 13.7539C65.1224 14.7826 65.2852 16.0391 65.2852 17.5234V31H59.6211V17.5039C59.6211 16.5664 59.4909 15.8372 59.2305 15.3164C58.9701 14.7956 58.5859 14.431 58.0781 14.2227C57.5833 14.0013 56.9714 13.8906 56.2422 13.8906C55.487 13.8906 54.8294 14.0404 54.2695 14.3398C53.7227 14.6393 53.2669 15.056 52.9023 15.5898C52.5508 16.1107 52.2839 16.7227 52.1016 17.4258C51.9193 18.1289 51.8281 18.8841 51.8281 19.6914ZM75.1875 0.980469V31H69.5625V0.980469H75.1875ZM88.5078 9.86719L79.3281 20.3359L74.4062 25.3164L72.3555 21.2539L76.2617 16.293L81.75 9.86719H88.5078ZM82.668 31L76.418 21.2344L80.3047 17.8359L89.1523 31H82.668ZM106.086 23.5586C106.086 23.0508 106.008 22.5951 105.852 22.1914C105.708 21.7747 105.435 21.3971 105.031 21.0586C104.628 20.707 104.061 20.362 103.332 20.0234C102.603 19.6849 101.659 19.3333 100.5 18.9688C99.2109 18.5521 97.987 18.0833 96.8281 17.5625C95.6823 17.0417 94.6667 16.4362 93.7812 15.7461C92.9089 15.043 92.2188 14.2292 91.7109 13.3047C91.2161 12.3802 90.9688 11.306 90.9688 10.082C90.9688 8.89714 91.2292 7.82292 91.75 6.85938C92.2708 5.88281 93 5.04948 93.9375 4.35938C94.875 3.65625 95.9818 3.11589 97.2578 2.73828C98.5469 2.36068 99.9596 2.17188 101.496 2.17188C103.592 2.17188 105.422 2.54948 106.984 3.30469C108.547 4.0599 109.758 5.09505 110.617 6.41016C111.49 7.72526 111.926 9.22917 111.926 10.9219H106.105C106.105 10.0885 105.93 9.35938 105.578 8.73438C105.24 8.09635 104.719 7.59505 104.016 7.23047C103.326 6.86589 102.453 6.68359 101.398 6.68359C100.383 6.68359 99.5365 6.83984 98.8594 7.15234C98.1823 7.45182 97.6745 7.86198 97.3359 8.38281C96.9974 8.89062 96.8281 9.46354 96.8281 10.1016C96.8281 10.5833 96.9453 11.0195 97.1797 11.4102C97.4271 11.8008 97.7917 12.1654 98.2734 12.5039C98.7552 12.8424 99.3477 13.1615 100.051 13.4609C100.754 13.7604 101.568 14.0534 102.492 14.3398C104.042 14.8086 105.402 15.3359 106.574 15.9219C107.759 16.5078 108.749 17.1654 109.543 17.8945C110.337 18.6237 110.936 19.4505 111.34 20.375C111.743 21.2995 111.945 22.3477 111.945 23.5195C111.945 24.7565 111.704 25.8633 111.223 26.8398C110.741 27.8164 110.044 28.6432 109.133 29.3203C108.221 29.9974 107.134 30.5117 105.871 30.8633C104.608 31.2148 103.195 31.3906 101.633 31.3906C100.227 31.3906 98.8398 31.2083 97.4727 30.8438C96.1055 30.4661 94.862 29.8997 93.7422 29.1445C92.6354 28.3893 91.75 27.4258 91.0859 26.2539C90.4219 25.082 90.0898 23.6953 90.0898 22.0938H95.9688C95.9688 22.9792 96.1055 23.7279 96.3789 24.3398C96.6523 24.9518 97.0365 25.4466 97.5312 25.8242C98.0391 26.2018 98.638 26.4753 99.3281 26.6445C100.031 26.8138 100.799 26.8984 101.633 26.8984C102.648 26.8984 103.482 26.7552 104.133 26.4688C104.797 26.1823 105.285 25.7852 105.598 25.2773C105.923 24.7695 106.086 24.1966 106.086 23.5586ZM126.984 26.2344V16.8203C126.984 16.1432 126.874 15.5638 126.652 15.082C126.431 14.5872 126.086 14.2031 125.617 13.9297C125.161 13.6562 124.569 13.5195 123.84 13.5195C123.215 13.5195 122.674 13.6302 122.219 13.8516C121.763 14.0599 121.411 14.3659 121.164 14.7695C120.917 15.1602 120.793 15.6224 120.793 16.1562H115.168C115.168 15.2578 115.376 14.4049 115.793 13.5977C116.21 12.7904 116.815 12.0807 117.609 11.4688C118.404 10.8438 119.348 10.3555 120.441 10.0039C121.548 9.65234 122.785 9.47656 124.152 9.47656C125.793 9.47656 127.251 9.75 128.527 10.2969C129.803 10.8438 130.806 11.6641 131.535 12.7578C132.277 13.8516 132.648 15.2188 132.648 16.8594V25.9023C132.648 27.0612 132.72 28.0117 132.863 28.7539C133.007 29.4831 133.215 30.1211 133.488 30.668V31H127.805C127.531 30.4271 127.323 29.7109 127.18 28.8516C127.049 27.9792 126.984 27.1068 126.984 26.2344ZM127.727 18.1289L127.766 21.3125H124.621C123.879 21.3125 123.234 21.3971 122.688 21.5664C122.141 21.7357 121.691 21.9766 121.34 22.2891C120.988 22.5885 120.728 22.9401 120.559 23.3438C120.402 23.7474 120.324 24.1901 120.324 24.6719C120.324 25.1536 120.435 25.5898 120.656 25.9805C120.878 26.3581 121.197 26.6576 121.613 26.8789C122.03 27.0872 122.518 27.1914 123.078 27.1914C123.924 27.1914 124.66 27.0221 125.285 26.6836C125.91 26.3451 126.392 25.9284 126.73 25.4336C127.082 24.9388 127.264 24.4701 127.277 24.0273L128.762 26.4102C128.553 26.944 128.267 27.4974 127.902 28.0703C127.551 28.6432 127.102 29.1836 126.555 29.6914C126.008 30.1862 125.35 30.5964 124.582 30.9219C123.814 31.2344 122.902 31.3906 121.848 31.3906C120.507 31.3906 119.289 31.1237 118.195 30.5898C117.115 30.043 116.255 29.2943 115.617 28.3438C114.992 27.3802 114.68 26.2865 114.68 25.0625C114.68 23.9557 114.888 22.9727 115.305 22.1133C115.721 21.2539 116.333 20.5312 117.141 19.9453C117.961 19.3464 118.983 18.8971 120.207 18.5977C121.431 18.2852 122.85 18.1289 124.465 18.1289H127.727ZM142.922 9.86719V31H137.277V9.86719H142.922ZM136.926 4.35938C136.926 3.53906 137.212 2.86198 137.785 2.32812C138.358 1.79427 139.126 1.52734 140.09 1.52734C141.04 1.52734 141.802 1.79427 142.375 2.32812C142.961 2.86198 143.254 3.53906 143.254 4.35938C143.254 5.17969 142.961 5.85677 142.375 6.39062C141.802 6.92448 141.04 7.19141 140.09 7.19141C139.126 7.19141 138.358 6.92448 137.785 6.39062C137.212 5.85677 136.926 5.17969 136.926 4.35938ZM153.078 14.3789V31H147.453V9.86719H152.727L153.078 14.3789ZM152.258 19.6914H150.734C150.734 18.1289 150.936 16.7227 151.34 15.4727C151.743 14.2096 152.31 13.1354 153.039 12.25C153.768 11.3516 154.634 10.668 155.637 10.1992C156.652 9.71745 157.785 9.47656 159.035 9.47656C160.025 9.47656 160.93 9.61979 161.75 9.90625C162.57 10.1927 163.273 10.6484 163.859 11.2734C164.458 11.8984 164.914 12.7253 165.227 13.7539C165.552 14.7826 165.715 16.0391 165.715 17.5234V31H160.051V17.5039C160.051 16.5664 159.921 15.8372 159.66 15.3164C159.4 14.7956 159.016 14.431 158.508 14.2227C158.013 14.0013 157.401 13.8906 156.672 13.8906C155.917 13.8906 155.259 14.0404 154.699 14.3398C154.152 14.6393 153.697 15.056 153.332 15.5898C152.98 16.1107 152.714 16.7227 152.531 17.4258C152.349 18.1289 152.258 18.8841 152.258 19.6914ZM180.344 9.86719V13.8516H168.039V9.86719H180.344ZM171.086 4.65234H176.711V24.6328C176.711 25.2448 176.789 25.7135 176.945 26.0391C177.115 26.3646 177.362 26.5924 177.688 26.7227C178.013 26.8398 178.423 26.8984 178.918 26.8984C179.27 26.8984 179.582 26.8854 179.855 26.8594C180.142 26.8203 180.383 26.7812 180.578 26.7422L180.598 30.8828C180.116 31.0391 179.595 31.1628 179.035 31.2539C178.475 31.3451 177.857 31.3906 177.18 31.3906C175.943 31.3906 174.862 31.1888 173.938 30.7852C173.026 30.3685 172.323 29.7044 171.828 28.793C171.333 27.8815 171.086 26.6836 171.086 25.1992V4.65234ZM189.484 1V31H183.84V1H189.484ZM200.402 28.6172L206.008 9.86719H212.043L203.547 34.1836C203.365 34.7174 203.117 35.2904 202.805 35.9023C202.505 36.5143 202.095 37.0938 201.574 37.6406C201.066 38.2005 200.422 38.6562 199.641 39.0078C198.872 39.3594 197.928 39.5352 196.809 39.5352C196.275 39.5352 195.839 39.5026 195.5 39.4375C195.161 39.3724 194.758 39.2812 194.289 39.1641V35.043C194.432 35.043 194.582 35.043 194.738 35.043C194.895 35.056 195.044 35.0625 195.188 35.0625C195.93 35.0625 196.535 34.9779 197.004 34.8086C197.473 34.6393 197.85 34.3789 198.137 34.0273C198.423 33.6888 198.651 33.2461 198.82 32.6992L200.402 28.6172ZM198.059 9.86719L202.648 25.1797L203.449 31.1367L199.621 31.5469L192.023 9.86719H198.059Z" fill="url(#paint0_linear_47_32)"/>
<defs>
<linearGradient id="paint0_linear_47_32" x1="-2" y1="-3.28107e-06" x2="213" y2="41" gradientUnits="userSpaceOnUse">
<stop stop-color="#9EF9D8"/>
<stop offset="1" stop-color="#CAF6BF"/>
</linearGradient>
</defs>
</svg>
