<svg width="21" height="23" viewBox="0 0 21 23" fill="none" xmlns="http://www.w3.org/2000/svg">
<path d="M11.1925 11.0201L14.8888 7.32387L2.95 0.613872C2.15875 0.186372 1.4175 0.126372 0.7675 0.593872L11.1925 11.0201ZM15.5188 15.3476L19.3613 13.1864C20.1113 12.7664 20.5225 12.1714 20.5225 11.5114C20.5225 10.8526 20.1112 10.2564 19.3625 9.83637L15.8838 7.88262L11.9675 11.7976L15.5188 15.3476V15.3476ZM0.125 1.50262C0.0449999 1.74887 0 2.02387 0 2.32512V20.7064C0 21.1826 0.105 21.5926 0.295 21.9189L10.4163 11.7964L0.125 1.50262ZM11.1925 12.5714L1.1275 22.6376C1.32 22.7114 1.5275 22.7501 1.74625 22.7501C2.13625 22.7501 2.5425 22.6351 2.95625 22.4051L14.525 15.9089L11.1925 12.5714V12.5714Z" fill="white"/>
</svg>
